# xmcd
#
# Track frame offsets: 
#        150
#        92714
#        142243
#
# Disc length: 3134 seconds
#
# Revision: 2
# Processed by: cddbd v1.5.2PL0 Copyright (c) Steve Scherf et al.
# Submitted via: ExactAudioCopy v0.99pb3
#
DISCID=260c3c03
DTITLE=Tangerine Dream - In Search Of Hades 02 of 18
DYEAR=1974
DGENRE=
TTITLE0=2nd Day
TTITLE1=Flute Organ Piece
TTITLE2=Phaedra Out-Take Version 2A
EXTD=
EXTT0=
EXTT1=
EXTT2=
PLAYORDER=
